<?xml version="1.0" standalone="no"?>
<!DOCTYPE svg PUBLIC "-//W3C//DTD SVG 20010904//EN"
 "http://www.w3.org/TR/2001/REC-SVG-20010904/DTD/svg10.dtd">
<svg version="1.0" xmlns="http://www.w3.org/2000/svg"
 width="500.000000pt" height="500.000000pt" viewBox="0 0 500.000000 500.000000"
 preserveAspectRatio="xMidYMid meet">

<g transform="translate(0.000000,500.000000) scale(0.100000,-0.100000)"
fill="#000000" stroke="none">
<path d="M2140 3190 c-361 -77 -524 -247 -377 -393 82 -82 224 -140 436 -179
165 -30 438 -29 604 1 216 40 377 110 445 193 60 74 56 134 -14 208 -71 76
-267 160 -408 175 l-51 5 36 -14 c105 -41 179 -102 179 -147 0 -59 -61 -102
-196 -139 -112 -31 -391 -39 -518 -16 -172 33 -266 86 -266 151 0 59 80 120
205 156 78 23 33 23 -75 -1z"/>
<path d="M2290 3156 c-85 -24 -131 -67 -110 -106 25 -48 172 -89 315 -89 134
0 276 37 314 83 24 29 5 63 -52 89 -28 14 -65 28 -82 31 l-30 6 28 -16 c20
-11 27 -22 25 -37 -5 -35 -67 -59 -168 -65 -176 -10 -304 52 -207 101 38 19
28 20 -33 3z"/>
<path d="M1717 2403 c-9 -8 -9 -86 -1 -107 3 -9 11 -16 17 -16 7 0 7 4 -1 12
-7 7 -12 30 -12 53 0 23 5 46 12 53 7 7 8 12 2 12 -6 0 -14 -3 -17 -7z"/>
<path d="M2092 2398 c-15 -15 -16 -82 -2 -109 13 -23 52 -25 70 -4 15 18 7 19
-19 3 -23 -14 -51 4 -51 33 0 15 8 19 40 19 35 0 40 3 40 23 0 23 -17 47 -33
47 -5 0 -1 -7 7 -16 27 -27 20 -44 -19 -44 -27 0 -35 4 -35 18 0 10 5 23 12
30 7 7 10 12 7 12 -3 0 -10 -5 -17 -12z"/>
<path d="M2454 2395 c-8 -19 13 -45 35 -44 11 0 9 3 -6 9 -26 10 -29 20 -11
38 9 9 9 12 0 12 -7 0 -15 -7 -18 -15z"/>
<path d="M2837 2403 c-4 -3 -6 -34 -5 -67 1 -36 3 -48 5 -28 4 31 7 33 36 30
26 -2 33 -8 38 -33 5 -23 7 -17 8 26 1 42 -3 60 -16 70 -15 13 -15 12 -4 -9
16 -30 7 -42 -31 -42 -28 0 -30 2 -26 30 5 32 5 33 -5 23z"/>
<path d="M3206 2394 c-3 -9 -5 -39 -4 -67 1 -38 2 -43 5 -19 4 31 7 33 36 30
26 -2 33 -8 38 -33 4 -18 6 -4 5 34 -1 44 -5 66 -14 69 -11 3 -11 1 0 -17 11
-18 11 -23 -2 -31 -37 -24 -69 -5 -50 30 6 11 7 20 1 20 -5 0 -12 -7 -15 -16z"/>
<path d="M2521 2332 c11 -17 10 -24 -2 -38 -12 -15 -12 -17 1 -12 19 6 20 60
2 66 -11 3 -11 0 -1 -16z"/>
<path d="M2450 2301 c0 -5 7 -12 16 -15 14 -5 15 -4 4 9 -14 17 -20 19 -20 6z"/>
</g>
</svg>
